<svg xmlns="http://www.w3.org/2000/svg" viewBox="0 0 863.87 699.06"><defs><style>.cls-1{isolation:isolate;}.cls-2,.cls-8{fill:#dc5151;}.cls-12,.cls-3{fill:#fb897a;}.cls-10,.cls-4,.cls-7{fill:#74acae;}.cls-5{fill:#93cace;}.cls-6{fill:#ffb89e;}.cls-7{opacity:0.21;}.cls-10,.cls-20,.cls-21,.cls-26,.cls-7{mix-blend-mode:multiply;}.cls-8{stroke:#c9c9c9;}.cls-15,.cls-8{stroke-miterlimit:10;}.cls-9{fill:#3a434b;}.cls-10{opacity:0.33;}.cls-11{fill:#303951;}.cls-12{opacity:0.68;}.cls-13,.cls-15{fill:none;}.cls-14{fill:#fae38b;}.cls-15{stroke:#303951;}.cls-16{fill:#c9c9c9;}.cls-17{fill:#444f59;}.cls-18,.cls-26{fill:#ff9780;}.cls-19{fill:#5d9696;}.cls-20{fill:#e86c5e;opacity:0.22;}.cls-21{fill:#323942;opacity:0.08;}.cls-22{fill:#c6c6c6;}.cls-23{fill:#e8e8e8;}.cls-24,.cls-27{fill:#fff;}.cls-25{fill:#272d32;}.cls-26{opacity:0.3;}.cls-27{opacity:0.29;}.cls-28{fill:#ade6e8;}</style></defs><title>bgr1</title><g class="cls-1"><g id="Layer_1" data-name="Layer 1"><ellipse class="cls-2" cx="481.68" cy="349.53" rx="382.2" ry="349.53"/><polygon class="cls-3" points="296.29 343.94 312.49 386.8 310.65 384.65 329.75 373.75 334.24 373.75 322.36 456.87 294.86 441.16 265.49 364.84 296.29 343.94"/><path class="cls-4" d="M298.88,749.05s47.89-21.38,115.9-9.09,86,2.77,86,2.77l-3-63.67L366.15,658.64l-67.27,18.49Z" transform="translate(-50.63 -159.01)"/><path class="cls-5" d="M211,431.37c-1,.59-40.21,18.71-53.11,47.77s-16.55,53-16.55,53,4.33,13.57,44.11,16c17.65,11.19,15.81,81.68,15.81,81.68l67.26-43.26,60.35,6.22-6.45-60.39,32.13-17.12S332,435,273.23,427.74C226.34,421.92,211,431.37,211,431.37Z" transform="translate(-50.63 -159.01)"/><path class="cls-6" d="M239.29,414.29l-42.81,24.64s40.35,47.29,63.47,50.2c27.69-7.36,44.8-53.25,44.8-53.25s-26.23-9.11-51.5-17C232.63,420.64,239.29,414.29,239.29,414.29Z" transform="translate(-50.63 -159.01)"/><polygon class="cls-6" points="113.72 374.08 105.23 493.97 153.67 459.41 150.66 382.52 113.72 374.08"/><path class="cls-5" d="M215.61,549C169,559.7,137,538.53,137,538.53l14.27-42.83Z" transform="translate(-50.63 -159.01)"/><polygon class="cls-7" points="153.29 449.75 151.91 354.81 162.39 395.77 198.9 429.81 153.29 449.75"/><path class="cls-8" d="M406,382.21c3.05,24.61-2.91,46.5-12.2,69.52-7.58,18.76-14.86,36.83-16.52,57.06a137.13,137.13,0,0,0,19.37,81.88c6,9.86,13.93,18.69,14.84,30.51.35,4.55,7.84,4.59,7.49,0-1.45-18.87-17.12-33.56-24.35-50.66a131.08,131.08,0,0,1-9.85-61.73c1.86-22.54,11.59-42,19.34-63.05A136.35,136.35,0,0,0,411.59,381C411,376.52,406,382.21,406,382.21Z" transform="translate(-50.63 -159.01)"/><path class="cls-8" d="M428.6,384.67c-5.8,16.16-6.2,32.18-4.69,49A151.57,151.57,0,0,1,419,489.68c-8.56,31.38-7.31,62.08,6.4,92,1.92,4.19,8.38.57,6.47-3.6a120.41,120.41,0,0,1-11.29-50.39c0-16.87,5.08-32.27,9-48.51,7.43-30.78-6.74-64.44,4.05-94.53C435.22,380.32,428.6,384.67,428.6,384.67Z" transform="translate(-50.63 -159.01)"/><path class="cls-4" d="M604.92,358.07s-13.39-17.63-37.33-8.76S416.47,496.93,406.51,544.65s18.29,61.7,18.29,61.7L597.49,442.62Z" transform="translate(-50.63 -159.01)"/><path class="cls-5" d="M753,394.81s-109-49.68-148.08-41.1-86,89.77-86,89.77-64.26,92.57-66.08,96.19S533.4,582.2,533.4,582.2l61.21-9.94Z" transform="translate(-50.63 -159.01)"/><path class="cls-7" d="M664.56,361.66S589,385.61,553,465.49s70.7,42.74,70.7,42.74,49.88-78.12,81.46-102.3S753,394.81,753,394.81,679,362.58,664.56,361.66Z" transform="translate(-50.63 -159.01)"/><path class="cls-9" d="M468.44,459s-18.84,63,7.12,75.65,46-38.56,46-38.56l-27.73-34.79Z" transform="translate(-50.63 -159.01)"/><path class="cls-4" d="M563,608.76S676.71,399.08,731.22,392s34,68.58,34,68.58-75,68.77-108.44,125.09-40.46,121.18-63.9,118S563,608.76,563,608.76Z" transform="translate(-50.63 -159.01)"/><path class="cls-5" d="M165.29,781.19a273.12,273.12,0,0,0,62.12-29c16.4-10.36,31.61-22.45,48.67-31.8A178.69,178.69,0,0,1,365.25,699a38.64,38.64,0,0,0-10.54-12.59c-25.37-20-120.29-60.64-120.47-60.48s-119.73,62.78-119.73,62.78L92,715.54S81.56,783.35,92,810c.22.56.48,1.08.73,1.61,8.69-7.54,19.34-13,30.32-17.22C136.79,789.11,151.24,785.71,165.29,781.19Z" transform="translate(-50.63 -159.01)"/><path class="cls-4" d="M666,455.81a128.32,128.32,0,0,0-13.61-13.68,162.9,162.9,0,0,0-15.16-11.93,154.72,154.72,0,0,0-34-17.94,150.33,150.33,0,0,0-18.46-5.47A145.64,145.64,0,0,0,565.71,404a133.27,133.27,0,0,0-19.27,0c-3.22.13-6.41.58-9.61.95-1.6.14-3.18.47-4.77.74l-4.76.83,4.74-.95c1.58-.31,3.16-.68,4.76-.87,3.19-.45,6.38-1,9.6-1.19a133.09,133.09,0,0,1,19.36-.27c3.22.27,6.46.46,9.65,1,3.21.37,6.38,1.06,9.55,1.66a148.59,148.59,0,0,1,18.62,5.43,151.64,151.64,0,0,1,34.1,18.25A145.77,145.77,0,0,1,666,455.81Z" transform="translate(-50.63 -159.01)"/><path class="cls-4" d="M588.88,360.75a236.15,236.15,0,0,1,41.54,6,195.27,195.27,0,0,1,39.71,13.68c1.57.8,3.18,1.5,4.71,2.37l4.62,2.52,4.5,2.74,1.12.69,1.09.74,2.18,1.49,2.17,1.49,2.08,1.61,2.09,1.61,1,.81,1,.87,4,3.48,3.69,3.76a87.18,87.18,0,0,1,12.41,17,86.15,86.15,0,0,1,7.32,19.65,85.37,85.37,0,0,0-7.75-19.41,86.82,86.82,0,0,0-12.54-16.68l-3.71-3.68-3.94-3.43-1-.86-1-.79-2.07-1.59L690,393.22l-2.16-1.47-2.17-1.47-1.08-.73-1.12-.68-4.47-2.7-4.61-2.49c-1.52-.85-3.12-1.54-4.68-2.33a177.22,177.22,0,0,0-19.36-8c-6.6-2.27-13.32-4.19-20.1-5.89s-13.64-3.07-20.54-4.2S595.86,361.24,588.88,360.75Z" transform="translate(-50.63 -159.01)"/><path class="cls-10" d="M87.34,759s129.27-117.34,218.47-129.2,77,67,77,67-47.78-.85-91.79,16.39c-27.72,10.86-59.74,45.79-125.77,68-35.76,10.45-79,25.29-79,25.29Z" transform="translate(-50.63 -159.01)"/><path class="cls-6" d="M256.62,374.4c-8-5.53-8.77-15.09.57-31.1,38,12.42,55.8-12,62.13-24.35a30.82,30.82,0,0,1,1.24,24.7l-16.21,42.51c-5.19,13.59-19.07,21.91-33.53,21.36C274,395.71,263.77,379.36,256.62,374.4Z" transform="translate(-50.63 -159.01)"/><path class="cls-3" d="M246.26,335.23c41.1,13.62,64.36-7.89,72.39-17.66.25.45.45.92.67,1.38-6.33,12.36-24.13,36.77-62.13,24.35-9.34,16-8.55,25.57-.57,31.1,7.15,5,17.41,21.31,14.2,33.12a35.5,35.5,0,0,1-10.22-1.9l-33.51-11.57c-17.66-6.09-26.86-24.82-20.45-41.62l10.75-28.2A287.84,287.84,0,0,0,246.26,335.23Z" transform="translate(-50.63 -159.01)"/><path class="cls-11" d="M293.7,353.31c-.9,2.32-.59,4.56.7,5s3.07-1.05,4-3.36.58-4.56-.71-5S294.6,351,293.7,353.31Z" transform="translate(-50.63 -159.01)"/><path class="cls-12" d="M278.49,353.64A4.74,4.74,0,0,0,280,360.4a5.29,5.29,0,0,0,7.1-1.44,4.75,4.75,0,0,0-1.51-6.76A5.29,5.29,0,0,0,278.49,353.64Z" transform="translate(-50.63 -159.01)"/><polygon class="cls-6" points="263.06 202.65 272.2 221.61 255.18 219.63 263.06 202.65"/><path class="cls-11" d="M266.59,290.47,300.11,302a33.44,33.44,0,0,1,18.54,15.53c-8,9.77-31.29,31.28-72.39,17.66a287.84,287.84,0,0,1-28.87-11l5.46-14.3C229.25,293.13,248.94,284.37,266.59,290.47Z" transform="translate(-50.63 -159.01)"/><path class="cls-11" d="M315.69,319.6s23.21-14,16.36-20.24S323.8,310.1,315.69,319.6Z" transform="translate(-50.63 -159.01)"/><path class="cls-11" d="M317.22,318.44s8.35-19.69,3.92-22S317.22,318.44,317.22,318.44Z" transform="translate(-50.63 -159.01)"/><path class="cls-3" d="M283.12,385.41a14.06,14.06,0,0,1-6.24-12.05C284.76,376.38,284,382.46,283.12,385.41Z" transform="translate(-50.63 -159.01)"/><path class="cls-11" d="M284.27,362.72c4.3.71,5.9,6.55,7.43,11.75s7.48,4.23,7.41,6.71c-.05,2.1-8.65,9-16,4.23.92-3,1.64-9-6.24-12.05C277.15,367.21,281.6,362.28,284.27,362.72Z" transform="translate(-50.63 -159.01)"/><path class="cls-3" d="M230.2,389.27l-10.94,46.36s22.79,18.72,52.68,3.62a274.26,274.26,0,0,1-2.57-39.83Z" transform="translate(-50.63 -159.01)"/><path class="cls-11" d="M248.52,299.6c.14,0,.34-.21.59-.55,3.51-4.94,16.07-41.13-5.39-41.18-22.95-.05-41.73,22.81-25.77,37.86S248.52,299.6,248.52,299.6Z" transform="translate(-50.63 -159.01)"/><path class="cls-9" d="M530.3,384.67s-13.73-25.2-5.51-27.61S531,379.19,531,379.19s4.3-17.66,9.6-14.39S530.3,384.67,530.3,384.67Z" transform="translate(-50.63 -159.01)"/><path class="cls-9" d="M528.76,384.33c-13.37-2.88-30.11-4-41.5,4.3a58,58,0,0,0-8.27,7.45C487.87,396.72,505.4,395.84,528.76,384.33Z" transform="translate(-50.63 -159.01)"/><path class="cls-9" d="M576.71,410.14C589.23,428.55,590,452.45,602.28,471c7.18,10.89,18,19.44,24.18,30.88a45.38,45.38,0,0,1,4,32.69A47.49,47.49,0,0,1,611,561.77c-7.12,4.76-15.45,7.66-23.91,9.61-8.22,1.89-16.87,2.94-25.13,1.2-11.17-2.35-20.46-9.47-29.3-16.37-7.49-5.84-15.1-11.81-20.38-19.53-3.77-5.52-6.22-11.73-8.65-17.9-1.41-3.58-2.84-7.29-2.65-11.11.31-6,4.5-11.12,8.09-16.09,11.6-16.11,18.28-37.37,10-55.25-3.57-7.76-9.8-14.64-10.82-23-1.36-11.12,1.38-25.28,12.87-28.62,10.38-3,32.75,5,40.78,10.59A58.62,58.62,0,0,1,576.71,410.14Z" transform="translate(-50.63 -159.01)"/><path class="cls-13" d="M493.17,495.08l1.27-1.89C494.4,493.25,493.89,493.93,493.17,495.08Z" transform="translate(-50.63 -159.01)"/><path class="cls-14" d="M498.51,529.35c-18.47-10-11.44-20.48-7.72-26.4-9,.62-20.46-.51-25.52,1.18-12.54,4.2-1.11,50.85,20.25,57.3S554,545,554,545s23-9.52,29.74-8.49c.39-.84-27.9-21.08-28.91-23.69C537.91,520.91,514,537.77,498.51,529.35Z" transform="translate(-50.63 -159.01)"/><polygon class="cls-15" points="309.99 507.82 309.99 507.82 309.99 507.82 309.99 507.82 309.99 507.82"/><path class="cls-15" d="M500.81,530.39c-2.3-1-52.35,26-44.17,62.32C403.58,613,377.84,634,377.84,634" transform="translate(-50.63 -159.01)"/><path class="cls-16" d="M428.5,278.15c-7.74-.55-15.57-.68-23.26-1-5.14-.2-11.88,1-13.77,6.31-3.92,11.09-7.45,75.59,2,78s10.11,16.45,10.15,24.55,10.63,7.32,11.41,1.37-6.66-24.25,5.89-25.92.39,28.62,9.41,29,2.22-26,10.72-27.37,15.94-1.65,17.51-21.66c1-12.45,4.31-24.67,3.52-37.24-1-15.28-9.54-23.38-25.46-25.28C433.9,278.59,431.21,278.35,428.5,278.15Z" transform="translate(-50.63 -159.01)"/><path class="cls-6" d="M474.26,504s-21.57-3-48.77,5.76-69.06,45.34-69.06,45.34l-11.57-49.21s-14.6-2.23-21.79-7.74-18.27-11.74-15.67-5.33,10.37,10.28,10.37,10.28-19.25-4.91-24.55-15.56c-11.62,0-8.23,21.25,10.41,27.64s22.29,3.86,22.29,3.86-17.88,64.5,14,71.61,29.92,3,29.92,3l74.26-57.12Z" transform="translate(-50.63 -159.01)"/><path class="cls-4" d="M276.08,720.43c-17.06,9.35-32.27,21.44-48.67,31.8a273.12,273.12,0,0,1-62.12,29c-14,4.52-28.5,7.92-42.28,13.15-11,4.18-21.63,9.68-30.32,17.22,11.83,25,61.35,25,61.35,25s56.06-34,95.84-50.12,103.64-17.39,110.74-31c5.77-11,15-36.6,4.63-56.5A178.69,178.69,0,0,0,276.08,720.43Z" transform="translate(-50.63 -159.01)"/><path class="cls-4" d="M368.2,715.54c1.57-1.13,50.87-12.52,85.55-3s18.5,70.39,9.25,73-67.7-21-86.7-24C357.74,758.59,355.87,724.39,368.2,715.54Z" transform="translate(-50.63 -159.01)"/><path class="cls-4" d="M469.28,743.24c6.35-27.55,23.36-53.37,49.1-67.63,11.93-6.61,83.86-48.79,81.88-17.37-1.37,21.7-4.09,54.68-23.16,69.47C548.41,750,510.94,770.29,475,779.28c-2,.51-4.45.51-6-.88a6.28,6.28,0,0,1-1.64-3.19,35.2,35.2,0,0,1-.84-9.33A108.24,108.24,0,0,1,469.28,743.24Z" transform="translate(-50.63 -159.01)"/><path class="cls-14" d="M493.17,507.1l-18.23-3.53h-7.43s-53,31.69-44.77,59,8.89,34.56,8.89,34.56L366.15,611,441,696.77S517.33,669.6,548.11,631s35.63-94.46,35.63-94.46l-23.39-13Z" transform="translate(-50.63 -159.01)"/><path class="cls-9" d="M281,592.75c17.87-1.13,79,22.62,117.72,38.57,0,0-60.74-73.06-130.27-56.66-51.15,12.06-110.29,64.25-138,91,1.49,8.74,5.28,22.25,14.89,30.12,7.34-2.4,16.83-5.61,27.43-9.43C211.75,644.28,261.66,598.4,281,592.75Z" transform="translate(-50.63 -159.01)"/><path class="cls-17" d="M431.87,645.33s-13.79-6-33.16-14c-38.75-16-99.85-39.7-117.72-38.57-19.33,5.65-69.24,51.53-108.25,93.63-13.69,14.78-26,29.09-35.24,41,3.56,10.26,12.79,27.1,35.85,34.12,28.05-16.11,87.11-53.43,99.25-88.5,41.81,26.57,137.18,41.5,185.4,17S431.87,645.33,431.87,645.33Z" transform="translate(-50.63 -159.01)"/><path class="cls-6" d="M484.23,503.83c-2.49,6.47-8.14,26.13,12,32.71,10.67,3.5,25.54-2.13,38.83-9.51-12-33.6,2.28-58.85,26.22-76.64-34.82-17.66-33.37-52.45-31.36-65.79-.38-.09-.74-.19-1.13-.27-23.36,11.51-40.89,12.39-49.77,11.75-18.15,19.44-32.37,55.18-23.33,65.86,10.39,12.26,35.88,19.8,35.88,19.8,10.78,1.9,21.56,9.42,15.52,19Z" transform="translate(-50.63 -159.01)"/><path class="cls-3" d="M493.19,448.81a17,17,0,0,0,6.24-.25,17.27,17.27,0,0,0,9.26-5.21C499.43,439.88,494.9,445.6,493.19,448.81Z" transform="translate(-50.63 -159.01)"/><path class="cls-11" d="M511.41,428.66c-4.26-2.7-10.55,1-16.25,4.29s-9.93-2.14-12,0c-1.73,1.83-.26,14.26,10,15.85,1.71-3.21,6.24-8.93,15.5-5.46C513.66,437.93,514.05,430.33,511.41,428.66Z" transform="translate(-50.63 -159.01)"/><path class="cls-11" d="M499.41,414.62c-1.73.27-3.47.52-5.21.72s-3.47.43-5.22.59q-5.22.54-10.46.88l.4-.6c.57,1.74,1.09,3.5,1.63,5.26s1,3.53,1.5,5.3c-.72-1.69-1.42-3.39-2.07-5.11s-1.32-3.43-1.93-5.16l-.19-.54.59-.06c3.48-.34,7-.64,10.46-.86,1.75-.13,3.5-.18,5.25-.28S497.66,414.64,499.41,414.62Z" transform="translate(-50.63 -159.01)"/><path class="cls-11" d="M525.61,420.09c-.89,2.43-2.65,4.06-3.94,3.63s-1.59-2.74-.7-5.17,2.65-4.06,3.93-3.63S526.5,417.66,525.61,420.09Z" transform="translate(-50.63 -159.01)"/><path class="cls-11" d="M485.2,407.3c-.89,2.44-2.65,4.06-3.93,3.63s-1.6-2.74-.71-5.17,2.65-4.05,3.94-3.63S486.1,404.87,485.2,407.3Z" transform="translate(-50.63 -159.01)"/><path class="cls-18" d="M533.25,385.39c-1.07-.28-2.22-.54-3.36-.79-2,13.34-3.46,48.13,31.36,65.79-23.94,17.79-38.2,43-26.22,76.64a201.81,201.81,0,0,0,20.44-13.2c-.21-.35-.44-.68-.64-1-4.6-8.12-5.28-18.62-2.79-27.42,4.15-14.64,16.44-23.59,31.34-23.07,2.63-5.39,4.16-9.82,2.48-19.12C535.29,439.81,532.67,399.15,533.25,385.39Z" transform="translate(-50.63 -159.01)"/><path class="cls-19" d="M374.42,671.23s-4.88,19.64,3.42,29.43,40.4,28.24,63.17,26.76,141.76-64.18,153.6-75,0-25,0-25L517,619.27Z" transform="translate(-50.63 -159.01)"/><path class="cls-5" d="M409.08,660.2c-7.41,1-40.66,10.84-34.66,17.9s32,32.36,66.59,31.65,146.78-58.11,156.86-70.2S563,608.76,563,608.76Z" transform="translate(-50.63 -159.01)"/><ellipse class="cls-2" cx="317.41" cy="507.82" rx="26.97" ry="25.65"/><path class="cls-3" d="M569.76,441.32c.8-.19,22.88-12.68,28.28,1.76s-9.62,24.59-23,16.37A145.38,145.38,0,0,1,569.76,441.32Z" transform="translate(-50.63 -159.01)"/><path class="cls-11" d="M581,449.09a10.94,10.94,0,0,1,9.86-6.54c.87,0,1-1.33.11-1.3a12.12,12.12,0,0,0-10.63,6.13,18.54,18.54,0,0,0-1.25,2.72.5.5,0,0,0,0,.13c-.27.74-.52,1.5-.73,2.27s-.28,2.77-.82,3.26.27,1.57.9,1c1.28-1.18,1.32-4.3,1.86-5.9,3.29-1.51,8.52-3.36,11.72-1.13a.66.66,0,0,0,.77-1.08C589.54,446.37,584.7,447.59,581,449.09Z" transform="translate(-50.63 -159.01)"/><path class="cls-12" d="M517.86,429a4.75,4.75,0,0,0,1.51,6.76,5.29,5.29,0,0,0,7.1-1.44,4.74,4.74,0,0,0-1.51-6.76A5.29,5.29,0,0,0,517.86,429Z" transform="translate(-50.63 -159.01)"/><path class="cls-12" d="M464.82,418a4.75,4.75,0,0,0,1.51,6.76,5.29,5.29,0,0,0,7.1-1.43,4.74,4.74,0,0,0-1.51-6.76A5.29,5.29,0,0,0,464.82,418Z" transform="translate(-50.63 -159.01)"/><path class="cls-20" d="M535,527s-37.94,45.81-34.09,76.21c-34.43-6.08-48.08-27.79-48.08-27.79s-9.11,26.22,22.09,33.31c-26.77-2.41-30.88-8.59-30.88-8.59s12.46,16,22.44,19.1a253.77,253.77,0,0,0-42.67,22.6l10.33,4.45s51.53-16.79,76.75-29.86c12.87-21.52,50.33-76.74,72.82-80-9.11-9.46-23.3-18.51-28.27-22.66C542,523.31,535,527,535,527Z" transform="translate(-50.63 -159.01)"/><path class="cls-21" d="M343.65,655.89s21.56,2,34.19-13c10.11,3.4,25.87,17.66,9.85,38.14s-33.12,9-33.12,9S333.57,678.67,343.65,655.89Z" transform="translate(-50.63 -159.01)"/><path class="cls-22" d="M73,809.15c-14-.59-15.91-13.48-16-20.27-11.86,9.56-3.28,28.47,15,27.83,21.38-.75,33.55-10.5,55.13-18.15,8.62-3.06,15.1-7,19.78-11.36C123.67,782,92,810,73,809.15Z" transform="translate(-50.63 -159.01)"/><path class="cls-23" d="M74.09,781.26A65.68,65.68,0,0,1,64.78,785,22.19,22.19,0,0,0,57,788.88c.05,6.79,2,19.68,16,20.27,3.94.17,8.43-.91,13.28-2.67C87.91,791.22,79.33,784.13,74.09,781.26Z" transform="translate(-50.63 -159.01)"/><path class="cls-2" d="M156.77,762.59c-1.26-13.5-20.3-22.63-20.3-22.63s-37.85,29.6-62.38,41.3c5.24,2.87,13.82,10,12.16,25.22,18.51-6.69,42.25-23.37,60.69-19.28C154.8,779.82,157.57,771.06,156.77,762.59Z" transform="translate(-50.63 -159.01)"/><path class="cls-9" d="M137.5,727.42a182.73,182.73,0,0,0-12.15,17.42c11.74,33.36,33.14,24.88,33.14,24.88s5.83-3,14.86-8.18C150.29,754.52,141.06,737.68,137.5,727.42Z" transform="translate(-50.63 -159.01)"/><path class="cls-24" d="M88.65,773.58c7.92,1.13,12.09,8.61,12.23,16a.38.38,0,0,0,.75,0c-.15-7.71-4.51-15.57-12.78-16.74-.47-.07-.68.66-.2.72Z" transform="translate(-50.63 -159.01)"/><path class="cls-24" d="M106.92,761.9a18.8,18.8,0,0,1,7.76.35c6.47,1.64,9.66,6.92,10.3,13.32,0,.47.79.48.75,0-.61-6-3.29-11.39-9.25-13.56a19.38,19.38,0,0,0-9.76-.83c-.47.08-.27.81.2.72Z" transform="translate(-50.63 -159.01)"/><path class="cls-23" d="M70.13,711.74C62.75,717,57,721.28,55.05,723.36c-7.55,8-3.15,19.37-3.15,19.37s14.8-5.24,30.62-10.8a16.74,16.74,0,0,1-.78-1.59C77.62,720.63,73.39,715,70.13,711.74Z" transform="translate(-50.63 -159.01)"/><path class="cls-24" d="M80.46,703.74c6.23,1,10.37,6.82,11.87,12.49a.37.37,0,0,0,.72-.2c-1.56-5.9-5.91-12-12.39-13-.47-.08-.67.65-.2.72Z" transform="translate(-50.63 -159.01)"/><path class="cls-2" d="M124.79,698a4.84,4.84,0,0,0-1.81-.51c-2.54-.34-5.13-.18-7.69-.27a24.52,24.52,0,0,1-11.72-3.07,15.47,15.47,0,0,1-3.46-2.83c-10,6.65-21.16,14.2-30,20.44,3.26,3.23,7.49,8.89,11.61,18.6a16.74,16.74,0,0,0,.78,1.59c17.78-6.25,36.85-12.91,37.65-13,1.51-.14,7.19-15.13,7.19-15.13l.67-.43c-.42-.92-.85-1.85-1.27-2.78A5.36,5.36,0,0,0,124.79,698Z" transform="translate(-50.63 -159.01)"/><path class="cls-6" d="M125.18,674.83s-11.41,7.38-25.07,16.47a15.47,15.47,0,0,0,3.46,2.83,24.52,24.52,0,0,0,11.72,3.07c2.56.09,5.15-.07,7.69.27a4.84,4.84,0,0,1,1.81.51,5.36,5.36,0,0,1,2,2.63c.42.93.85,1.86,1.27,2.78l13.33-8.34Z" transform="translate(-50.63 -159.01)"/><path class="cls-22" d="M50.85,738.23s.61,5.77,2.77,8.2c6.88-1.12,70.4-22.63,75.91-26,0,0-1.2-13.4-2.17-16.61C124.32,711.34,71.28,734.51,50.85,738.23Z" transform="translate(-50.63 -159.01)"/><path class="cls-25" d="M137.56,658.64c-10.68,10.32-17,17.14-17,17.14L137,699.84a171.6,171.6,0,0,1,18.85-7.55C145.58,683.86,139.15,668,137.56,658.64Z" transform="translate(-50.63 -159.01)"/><path class="cls-24" d="M79.9,705.23c4.57,1.82,7.79,6.59,9.42,11,.17.44.89.25.72-.2-1.73-4.69-5.1-9.6-9.94-11.52-.45-.18-.64.55-.2.72Z" transform="translate(-50.63 -159.01)"/><path class="cls-24" d="M91.44,697.48c5.33-.25,8.74,5.69,10.14,9.95.15.46.87.26.72-.2-1.51-4.58-5.17-10.77-10.86-10.5-.48,0-.48.77,0,.75Z" transform="translate(-50.63 -159.01)"/><path class="cls-2" d="M392,326.91s12.09-8.19,30.31-2a44,44,0,0,0,33.17-2.16s1.09,27.82-8,31.42a28.06,28.06,0,0,0-10.08,7.3,4,4,0,0,1-6.41-.56A8.2,8.2,0,0,0,423,356.3c-5.45.23-9.89,1.7-12.57,5a4,4,0,0,1-6.27-.27c-1.48-2.2-3.51-4-6.3-4.16C389.94,356.32,392,326.91,392,326.91Z" transform="translate(-50.63 -159.01)"/><path class="cls-19" d="M463,785.51a36.3,36.3,0,0,0,2.47-4.15c.77-1.41,1.44-2.86,2.07-4.34a80.86,80.86,0,0,0,3.2-9c.42-1.55.87-3.09,1.19-4.66s.66-3.14,1-4.71.5-3.17.76-4.76.37-3.2.6-4.8c0,1.61-.05,3.23-.11,4.85s-.24,3.23-.49,4.83a65.9,65.9,0,0,1-2,9.52,57.71,57.71,0,0,1-3.47,9.09A35.85,35.85,0,0,1,463,785.51Z" transform="translate(-50.63 -159.01)"/><path class="cls-19" d="M370,759c-2.85-2-4.7-5.05-6.12-8.15a40.68,40.68,0,0,1-3-9.87c-.18-.84-.29-1.69-.39-2.55l-.32-2.55c-.1-1.71-.24-3.42-.26-5.13s0-3.43.06-5.14.24-3.41.4-5.1c.07,1.71.06,3.41.09,5.11s.15,3.4.21,5.09l.44,5.07.35,2.52c.1.84.22,1.67.4,2.5l.48,2.49.62,2.46a45.65,45.65,0,0,0,1.58,4.8,28.42,28.42,0,0,0,2.23,4.53A15.25,15.25,0,0,0,370,759Z" transform="translate(-50.63 -159.01)"/><path class="cls-10" d="M394.54,693.53s159.47-4.15,189.2-74.26c-29.2-27.09-50.34,21.91-50.34,21.91L384.87,681.06S387.27,691.35,394.54,693.53Z" transform="translate(-50.63 -159.01)"/><path class="cls-6" d="M583.74,536.49s22.28,17.23,10.87,45.67-59.07,77.18-59.07,77.18-92.3,23-120.76,21.67c-5-20-5.7-26.63-5.7-26.63s83.18-25.73,101.84-37.92C520.91,596.15,567.67,534.6,583.74,536.49Z" transform="translate(-50.63 -159.01)"/><path class="cls-24" d="M501.26,621.56s16.21,3.78,24.41,14.7a83.8,83.8,0,0,0,17.76-14.7s-8.82-15.48-26.69-15.21c-6.11,4.17-6.38,8.85-6.38,8.85S506.36,616.22,501.26,621.56Z" transform="translate(-50.63 -159.01)"/><path class="cls-2" d="M530.35,587.13s30-2.82,45.25,25.87l3.14-4.24s-4.91-29.49-45.34-26.56A26.81,26.81,0,0,0,530.35,587.13Z" transform="translate(-50.63 -159.01)"/><path class="cls-6" d="M413.14,655.82s-28.45-8.89-42.46-6.47-35.24,22.22-32.7,23.84,34.23-11.72,36.44-9.29,3.42,6.2-4.59,7.67c-3.84.71-28.17,9.49-25.48,14.81.88,1.74,25.73-8.35,30.07-5.32s-18.6,9.5-19.45,11.52,28,.81,32.27-3.64c11.47,4.59,29.73-7.67,30.58-10.5S413.14,655.82,413.14,655.82Z" transform="translate(-50.63 -159.01)"/><path class="cls-26" d="M559.81,552s14.55,46.79-26.41,82c-47,22.21-118.62,47-118.62,47a243.73,243.73,0,0,0,41-4.5c27-5.12,63-11.23,80.42-17.87,25.71-23.07,59.27-69.95,61.65-86.38s-7.12-33.23-14.13-35.77C577.33,536.45,559.81,552,559.81,552Z" transform="translate(-50.63 -159.01)"/><path class="cls-27" d="M431,284.77c-8.8-1.64-30.86-4-34.51,9.54a135.11,135.11,0,0,0-4.59,39.3c.27,7.63,3,13.78,11.58,15,7,1,14.42-1.34,21.3.35,8.38,2.06,22.28.45,28.3-6S468.62,288.91,431,284.77Z" transform="translate(-50.63 -159.01)"/><path class="cls-24" d="M442.7,332.51v-12.2s-19.89-8.37-35.81-2.77v12.83S419.69,324.94,442.7,332.51Z" transform="translate(-50.63 -159.01)"/><path class="cls-3" d="M292.31,487.57a14.88,14.88,0,0,0-.87,5.16,11.71,11.71,0,0,0,1.16,4.95,12.56,12.56,0,0,0,1.38,2.16,14.93,14.93,0,0,0,1.74,1.91c.63.61,1.35,1.11,2,1.69s1.48,1,2.2,1.51c-.82-.33-1.64-.72-2.46-1.1a22.83,22.83,0,0,1-2.27-1.5,13.08,13.08,0,0,1-3.51-4.23,11,11,0,0,1,.61-10.55Z" transform="translate(-50.63 -159.01)"/><path class="cls-24" d="M212.19,426s37.34,19.08,64.69,0c16.3,5.16,23.06,8.2,23.06,8.2s3.8,13,2.86,13.29S260,489.13,260,489.13l-36.43-38.9-13.67-20.67Z" transform="translate(-50.63 -159.01)"/><path class="cls-28" d="M212.19,426l47.07,60.4,41-53.84,19.45,14.16-60.66,50.76-70.07-53S197,430.92,212.19,426Z" transform="translate(-50.63 -159.01)"/><path class="cls-11" d="M233,357.66c.05,10.43,2.8,20.67,6.07,30.62,3,9.27,4.77,18.87,2.89,28.42C239.58,429,231.45,434.48,222.28,439c-9.44,4.65-22.5,6.06-33.12,5.49a22.26,22.26,0,0,1-8.27-1.9,20.17,20.17,0,0,1-8.22-7.44c-7-10.86-4.59-25.05.6-36.8s12.9-22.58,16.26-34.93c2.28-8.4,2.46-17.18,4.22-25.69,2.64-12.76,9.2-25.17,20.14-33s26.57-10.18,38.58-4c2,1,4,2.38,4.8,4.38,1.13,2.67,0,5.69-1.4,8.28-3.9,7.51-9.31,11.94-14.89,17.94C234.69,338.16,233,348.92,233,357.66Z" transform="translate(-50.63 -159.01)"/><path class="cls-3" d="M246.26,335.22s-7.15-13.21-17.59-9.77-12,22-4.53,24.91,15.19-2.27,15.19-2.27Z" transform="translate(-50.63 -159.01)"/><path class="cls-11" d="M228.25,329.56c-1.13-.48-.55-2.25.59-1.77,6.72,2.85,8.41,10.94,8,17.32-.08,1.19-2,1.1-1.94-.09a26.14,26.14,0,0,0-.22-5.53,1.17,1.17,0,0,1-.27-.2c-2.29-2.57-6-4.37-9.46-2.84-1.13.51-2-1.14-.87-1.65,3.4-1.52,7.05-.57,9.86,1.52A10.46,10.46,0,0,0,228.25,329.56Z" transform="translate(-50.63 -159.01)"/><path class="cls-6" d="M367.42,545.27S371,511,403.1,511s39,15,35.36,16.78-21-4.23-21-4.23,12.68,9.76,7.63,12.17-18.77-4.12-18.77-4.12,10.83,12.53,4.69,13-21.64-10.22-28.86-7.81S367.42,545.27,367.42,545.27Z" transform="translate(-50.63 -159.01)"/><path class="cls-3" d="M406.34,531.61s-4.06-7.17-16.77-5.82" transform="translate(-50.63 -159.01)"/><path class="cls-3" d="M416.09,523.37s-10.1-6.75-18.19-5.65" transform="translate(-50.63 -159.01)"/><path class="cls-3" d="M396.48,539.71c2.58,1.15,5.17,2.26,7.83,3.18a34.23,34.23,0,0,0,4,1.17,10.06,10.06,0,0,0,2,.25c.65,0,1.38-.09,1.44-.54a3.66,3.66,0,0,0-.26-1.84,18.27,18.27,0,0,0-.8-1.9c-.59-1.26-1.28-2.48-2-3.69l-2.17-3.64a9,9,0,0,1-.52-1l-.06-.17a.64.64,0,0,1,0-.34.58.58,0,0,1,.12-.27.56.56,0,0,1,.37-.18l.21,0,.07,0a.79.79,0,0,1,.2.12c.17.11.35.29.42.34a17.17,17.17,0,0,0,1.77,1,39.69,39.69,0,0,0,7.74,3.09,18.9,18.9,0,0,0,4.07.67,7.77,7.77,0,0,0,3.89-.74,3.08,3.08,0,0,0,1.38-1.19,2.22,2.22,0,0,0,0-1.77,10.67,10.67,0,0,0-2.31-3.34,45.91,45.91,0,0,0-6.43-5.44,38.44,38.44,0,0,1,6.81,5.06,10.89,10.89,0,0,1,2.59,3.48,3,3,0,0,1,0,2.35,2.84,2.84,0,0,1-.75,1,5.38,5.38,0,0,1-.94.64,8.62,8.62,0,0,1-4.32.88,20.21,20.21,0,0,1-4.27-.65,38.24,38.24,0,0,1-8-3.12,21,21,0,0,1-1.89-1.11c-.21-.17-.28-.25-.4-.34l0,0h0a.33.33,0,0,0,.14,0s.24,0,.31-.15a.49.49,0,0,0,.1-.21c0-.15,0-.1,0-.09l0,.09c.12.27.3.59.47.89l2.12,3.65c.7,1.23,1.38,2.48,2,3.78a16.93,16.93,0,0,1,.79,2,4.2,4.2,0,0,1,.2,2.31,1.48,1.48,0,0,1-.4.6,1.57,1.57,0,0,1-.62.29,4.14,4.14,0,0,1-1.15.1,11.75,11.75,0,0,1-2.15-.33,33.07,33.07,0,0,1-4.05-1.33A75.64,75.64,0,0,1,396.48,539.71Z" transform="translate(-50.63 -159.01)"/><path class="cls-3" d="M419.45,524.23c2,.54,4,1.07,6,1.52s4,.9,6,1.2a21.63,21.63,0,0,0,6,.25,3.68,3.68,0,0,0,1.3-.42.85.85,0,0,0,.52-.82,4.74,4.74,0,0,0-1.28-2.39,36,36,0,0,0-9.65-7.27,41.6,41.6,0,0,0-5.54-2.58,28.42,28.42,0,0,0-5.91-1.63,30.84,30.84,0,0,1,11.81,3.53,41,41,0,0,1,5.33,3.19,26.39,26.39,0,0,1,4.73,4.12,9.12,9.12,0,0,1,.93,1.34,3.44,3.44,0,0,1,.53,1.68,1.25,1.25,0,0,1-.06.5,1.13,1.13,0,0,1-.21.49,1.25,1.25,0,0,1-.34.38,1.41,1.41,0,0,1-.4.27,4.51,4.51,0,0,1-1.61.51,19.56,19.56,0,0,1-6.27-.4A71,71,0,0,1,419.45,524.23Z" transform="translate(-50.63 -159.01)"/><path class="cls-24" d="M408.19,289.22c-2.78,1.16-5.44,3.31-5.74,6.19a3.13,3.13,0,0,0,1.19,3,3.92,3.92,0,0,0,2.09.5,9.86,9.86,0,0,0,5.33-1.49,19.44,19.44,0,0,1,3.6-2.27c1.79-.63,4.86-.11,6-1.95a2.61,2.61,0,0,0-.65-3.09C416.88,287,411.87,287.67,408.19,289.22Z" transform="translate(-50.63 -159.01)"/><path class="cls-8" d="M512.53,623.18c-11.54,1.35-26.91,5.64-32.52,16.51-6.4,12.39,2.12,27.41,11.22,36.21,13.29,12.84,31.68,17.88,48,26.19,9.29,4.74,19.22,10.93,25.39,19.27,5.39,7.29,5.94,14.5.77,22.09s-15.24,13.45-24.73,8.45c-4.22-2.23-8,3.93-3.78,6.15,11.65,6.15,24.76,1.36,32.79-8.15,10.66-12.63,8-26.48-3.3-37.5-14.54-14.18-33.41-20.23-51.44-29.21-10.08-5-20.09-11.58-25.64-21.35-10.41-18.34,5-29.4,23.26-31.53,4.73-.55,4.79-7.69,0-7.13Z" transform="translate(-50.63 -159.01)"/></g></g></svg>